<svg xmlns="http://www.w3.org/2000/svg" viewBox="0 0 512 512" width="512" height="512"><path d="M512 216.307l-1.76 50.042c-1.772 9.212-7.063 18.412-16.476 16.681l-206.757 15.947-22.763 191.703c-1.772 9.2-9.425 16.681-18.838 17.258l-54.731 4.029c-8.823.577-15.885-6.326-14.126-15.526l22.37-190.404-182.443 13.806C7.063 319.266 0 313.517 0 304.317l1.76-50.042c.591-9.2 7.653-17.835 16.488-17.258l193.024-14.384 24.13-201.312c.591-9.212 9.413-17.258 18.248-17.258L308.972.034c8.823-.577 15.295 6.326 13.535 14.949l-23.148 200.686 196.756-14.889c8.823.577 15.885 9.778 15.885 18.978v-3.451z"/></svg>